<svg width="59" height="50" viewBox="0 0 59 50" fill="none" xmlns="http://www.w3.org/2000/svg">
<path fill-rule="evenodd" clip-rule="evenodd" d="M40.145 0C41.7697 5.52067e-05 43.3624 0.452474 44.7445 1.30658C46.1266 2.16068 47.2436 3.38273 47.9704 4.83583L52.0129 12.9179C52.7246 12.6262 53.4246 12.3112 54.1129 11.9729C54.8052 11.6271 55.6066 11.5706 56.3406 11.8156C57.0747 12.0606 57.6813 12.5873 58.0271 13.2796C58.3729 13.9719 58.4294 14.7732 58.1844 15.5073C57.9394 16.2413 57.4127 16.848 56.7204 17.1938C56.0193 17.5058 55.3144 17.8091 54.6058 18.1037L57.4088 23.7125C58.0171 24.9286 58.3337 26.2698 58.3333 27.6296V35C58.3333 36.2311 58.0735 37.4483 57.5709 38.5721C57.0683 39.6959 56.3342 40.701 55.4167 41.5217V45.2083C55.4167 46.3687 54.9557 47.4814 54.1353 48.3019C53.3148 49.1224 52.202 49.5833 51.0417 49.5833C49.8813 49.5833 48.7686 49.1224 47.9481 48.3019C47.1276 47.4814 46.6667 46.3687 46.6667 45.2083V43.75H11.6667V45.2083C11.6667 46.3687 11.2057 47.4814 10.3853 48.3019C9.56479 49.1224 8.45199 49.5833 7.29167 49.5833C6.13134 49.5833 5.01855 49.1224 4.19807 48.3019C3.3776 47.4814 2.91667 46.3687 2.91667 45.2083V41.5217C1.12583 39.9175 0 37.59 0 35V27.6267C0.000545063 26.2688 0.317089 24.9298 0.924583 23.7154L3.70417 18.1504C3.00028 17.8549 2.30514 17.5369 1.61875 17.1967C0.929925 16.8464 0.40632 16.2395 0.160803 15.5067C-0.0847127 14.774 -0.0324771 13.9742 0.30625 13.2796C0.477338 12.9367 0.714327 12.6308 1.00367 12.3795C1.29302 12.1283 1.62905 11.9365 1.99255 11.8151C2.35606 11.6938 2.73992 11.6452 3.12219 11.6723C3.50446 11.6994 3.87764 11.8015 4.22042 11.9729C4.91069 12.3132 5.61069 12.6282 6.32042 12.9179L10.3629 4.83875C11.0893 3.3851 12.2062 2.16245 13.5883 1.30782C14.9705 0.453181 16.5633 0.000326037 18.1883 0H40.145ZM16.0417 26.25C14.8813 26.25 13.7685 26.7109 12.9481 27.5314C12.1276 28.3519 11.6667 29.4647 11.6667 30.625C11.6667 31.7853 12.1276 32.8981 12.9481 33.7186C13.7685 34.5391 14.8813 35 16.0417 35C17.202 35 18.3148 34.5391 19.1353 33.7186C19.9557 32.8981 20.4167 31.7853 20.4167 30.625C20.4167 29.4647 19.9557 28.3519 19.1353 27.5314C18.3148 26.7109 17.202 26.25 16.0417 26.25ZM42.2917 26.25C41.1313 26.25 40.0185 26.7109 39.1981 27.5314C38.3776 28.3519 37.9167 29.4647 37.9167 30.625C37.9167 31.7853 38.3776 32.8981 39.1981 33.7186C40.0185 34.5391 41.1313 35 42.2917 35C43.452 35 44.5648 34.5391 45.3853 33.7186C46.2057 32.8981 46.6667 31.7853 46.6667 30.625C46.6667 29.4647 46.2057 28.3519 45.3853 27.5314C44.5648 26.7109 43.452 26.25 42.2917 26.25ZM40.145 5.83333H18.1883C17.7083 5.83326 17.2356 5.95168 16.8123 6.1781C16.389 6.40451 16.0281 6.73191 15.7617 7.13125L15.5808 7.44625L11.8767 14.8487C16.3917 16.2021 22.4758 17.5 29.1667 17.5C35.4142 17.5 41.1279 16.3683 45.5292 15.1171L46.4538 14.8487L42.7525 7.44625C42.5378 7.01696 42.2206 6.64728 41.8288 6.36999C41.437 6.0927 40.9829 5.91638 40.5067 5.85667L40.1479 5.83333H40.145Z" fill="#324587"/>
</svg>
