<svg width="56" height="45" viewBox="0 0 56 45" fill="none" xmlns="http://www.w3.org/2000/svg">
<path d="M5.58333 44.6667C4.04792 44.6667 2.73397 44.1204 1.6415 43.028C0.549028 41.9355 0.00186111 40.6206 0 39.0833V5.58333C0 4.04792 0.547167 2.73397 1.6415 1.6415C2.73583 0.549027 4.04978 0.00186111 5.58333 0H50.25C51.7854 0 53.1003 0.547166 54.1946 1.6415C55.289 2.73583 55.8352 4.04978 55.8333 5.58333V39.0833C55.8333 40.6188 55.2871 41.9336 54.1946 43.028C53.1022 44.1223 51.7873 44.6685 50.25 44.6667H5.58333ZM5.58333 22.3333H50.25V11.1667H5.58333V22.3333Z" fill="#324587"/>
</svg>
