<svg width="75" height="39" viewBox="0 0 75 39" fill="none" xmlns="http://www.w3.org/2000/svg">
<path d="M48.6155 1.96334L55.7524 8.78838L71.0866 8.42268C71.521 8.41119 71.9534 8.48583 72.3588 8.64229C72.7642 8.79874 73.1346 9.03392 73.4486 9.33425C73.7627 9.63458 74.0142 9.99412 74.1886 10.3921C74.363 10.7901 74.4568 11.2187 74.4647 11.6532L74.7101 23.6842C74.727 24.5537 74.399 25.3944 73.798 26.0229C73.197 26.6514 72.3717 27.0165 71.5024 27.0385L60.822 27.3003L41.7905 9.10017L37.2405 13.8581C36.6371 14.489 35.8078 14.8544 34.935 14.8739C34.0622 14.8934 33.2174 14.5654 32.5865 13.962C31.9556 13.3586 31.5902 12.5293 31.5707 11.6565C31.5512 10.7837 31.8792 9.93896 32.4826 9.30802L39.3076 2.17119C40.5144 0.909321 42.173 0.17851 43.9185 0.139531C45.6641 0.100551 47.3537 0.756592 48.6155 1.96334ZM22.9668 0.207958L13.8667 9.72373L3.20916 9.96173C2.33983 9.98373 1.51452 10.3488 0.913495 10.9773C0.312469 11.6058 -0.0154384 12.4466 0.00139031 13.316L0.246772 25.347C0.25469 25.7815 0.348557 26.2101 0.522956 26.6081C0.697351 27.0061 0.948829 27.3657 1.26288 27.666C1.57693 27.9663 1.94733 28.2015 2.35273 28.3579C2.75812 28.5144 3.19048 28.589 3.62487 28.5776L23.5904 28.1317L33.1061 37.2318C33.7371 37.8351 34.5818 38.1632 35.4546 38.1437C36.3274 38.1242 37.1567 37.7588 37.7601 37.1278L40.0351 34.7489L42.4141 37.0239C43.045 37.6273 43.8898 37.9553 44.7626 37.9358C45.6353 37.9163 46.4646 37.5509 47.068 36.92L49.343 34.5411L51.722 36.8161C52.3529 37.4194 53.1977 37.7475 54.0705 37.728C54.9433 37.7085 55.7726 37.3431 56.3759 36.7121L58.6509 34.3332L41.9983 18.4081L39.7233 20.787C38.5166 22.0489 36.858 22.7797 35.1124 22.8187C33.3668 22.8577 31.6773 22.2016 30.4154 20.9949L25.6575 16.4449C24.3956 15.2381 23.6648 13.5795 23.6259 11.8339C23.5869 10.0884 24.2429 8.3988 25.4497 7.13693L32.2747 0.0001022L22.9668 0.207958Z" fill="#324587"/>
</svg>
