<svg width="53" height="56" viewBox="0 0 53 56" fill="none" xmlns="http://www.w3.org/2000/svg">
<path fill-rule="evenodd" clip-rule="evenodd" d="M35.9783 0C37.4344 6.19353e-05 38.8618 0.507622 40.1004 1.46582C41.3391 2.42402 42.3402 3.79501 42.9916 5.42522L46.6145 14.4923C47.2523 14.1651 47.8796 13.8117 48.4965 13.4322C49.117 13.0443 49.8352 12.9808 50.493 13.2557C51.1509 13.5306 51.6946 14.1214 52.0044 14.8981C52.3143 15.6748 52.365 16.5738 52.1454 17.3973C51.9258 18.2208 51.4539 18.9014 50.8334 19.2893C50.2051 19.6394 49.5733 19.9797 48.9383 20.3102L51.4503 26.6026C51.9955 27.9669 52.2792 29.4715 52.2789 30.9971V39.2658C52.2789 40.6469 52.046 42.0125 51.5956 43.2732C51.1452 44.534 50.4873 45.6616 49.665 46.5823V50.7183C49.665 52.0201 49.2519 53.2685 48.5165 54.1889C47.7812 55.1094 46.7839 55.6265 45.744 55.6265C44.7042 55.6265 43.7069 55.1094 42.9715 54.1889C42.2362 53.2685 41.8231 52.0201 41.8231 50.7183V49.0822H10.4558V50.7183C10.4558 52.0201 10.0427 53.2685 9.30737 54.1889C8.57206 55.1094 7.57476 55.6265 6.53486 55.6265C5.49497 55.6265 4.49767 55.1094 3.76236 54.1889C3.02704 53.2685 2.61395 52.0201 2.61395 50.7183V46.5823C1.00898 44.7826 0 42.1715 0 39.2658V30.9938C0.000488491 29.4705 0.284178 27.9682 0.82862 26.6058L3.31971 20.3626C2.68888 20.031 2.06589 19.6743 1.45074 19.2926C0.833408 18.8996 0.364148 18.2187 0.144114 17.3967C-0.0759203 16.5747 -0.0291063 15.6773 0.274464 14.8981C0.427795 14.5134 0.640187 14.1703 0.899502 13.8884C1.15882 13.6065 1.45997 13.3913 1.78575 13.2551C2.11153 13.119 2.45554 13.0646 2.79814 13.0949C3.14073 13.1253 3.47518 13.2399 3.78238 13.4322C4.40101 13.8139 5.02836 14.1673 5.66442 14.4923L9.28735 5.4285C9.93835 3.79767 10.9393 2.42601 12.178 1.46721C13.4167 0.508415 14.8442 0.000365774 16.3006 0H35.9783ZM14.3767 29.4493C13.3368 29.4493 12.3395 29.9665 11.6042 30.8869C10.8689 31.8074 10.4558 33.0558 10.4558 34.3576C10.4558 35.6593 10.8689 36.9077 11.6042 37.8282C12.3395 38.7487 13.3368 39.2658 14.3767 39.2658C15.4166 39.2658 16.4139 38.7487 17.1492 37.8282C17.8845 36.9077 18.2976 35.6593 18.2976 34.3576C18.2976 33.0558 17.8845 31.8074 17.1492 30.8869C16.4139 29.9665 15.4166 29.4493 14.3767 29.4493ZM37.9022 29.4493C36.8623 29.4493 35.865 29.9665 35.1297 30.8869C34.3944 31.8074 33.9813 33.0558 33.9813 34.3576C33.9813 35.6593 34.3944 36.9077 35.1297 37.8282C35.865 38.7487 36.8623 39.2658 37.9022 39.2658C38.9421 39.2658 39.9394 38.7487 40.6747 37.8282C41.41 36.9077 41.8231 35.6593 41.8231 34.3576C41.8231 33.0558 41.41 31.8074 40.6747 30.8869C39.9394 29.9665 38.9421 29.4493 37.9022 29.4493ZM35.9783 6.5443H16.3006C15.8703 6.54422 15.4467 6.67708 15.0673 6.93108C14.688 7.18509 14.3645 7.5524 14.1258 8.00041L13.9637 8.3538L10.644 16.6585C14.6904 18.1768 20.1431 19.6329 26.1395 19.6329C31.7385 19.6329 36.8592 18.3633 40.8037 16.9595L41.6323 16.6585L38.3152 8.3538C38.1228 7.87219 37.8385 7.45745 37.4874 7.14636C37.1363 6.83528 36.7293 6.63747 36.3025 6.57048L35.981 6.5443H35.9783Z" fill="#F39200"/>
</svg>
