<svg width="53" height="48" viewBox="0 0 53 48" fill="none" xmlns="http://www.w3.org/2000/svg">
<path fill-rule="evenodd" clip-rule="evenodd" d="M35.9808 0C37.437 5.31353e-05 38.8644 0.435497 40.1032 1.25755C41.3419 2.07961 42.3431 3.25581 42.9945 4.65439L46.6176 12.4332C47.2555 12.1525 47.8829 11.8493 48.4998 11.5237C49.1203 11.1909 49.8385 11.1364 50.4964 11.3723C51.1543 11.6081 51.6981 12.115 52.008 12.7813C52.3179 13.4477 52.3686 14.2189 52.149 14.9254C51.9293 15.6319 51.4574 16.2158 50.8368 16.5486C50.2085 16.8489 49.5767 17.1409 48.9416 17.4245L51.4538 22.8228C51.999 23.9933 52.2828 25.2841 52.2825 26.5929V33.6868C52.2824 34.8716 52.0496 36.0432 51.5991 37.1248C51.1487 38.2064 50.4907 39.1738 49.6683 39.9637V43.5121C49.6683 44.6289 49.2552 45.6999 48.5198 46.4896C47.7845 47.2793 46.7871 47.7229 45.7471 47.7229C44.7072 47.7229 43.7098 47.2793 42.9745 46.4896C42.2391 45.6999 41.826 44.6289 41.826 43.5121V42.1085H10.4565V43.5121C10.4565 44.6289 10.0434 45.6999 9.308 46.4896C8.57264 47.2793 7.57527 47.7229 6.53531 47.7229C5.49534 47.7229 4.49798 47.2793 3.76261 46.4896C3.02725 45.6999 2.61412 44.6289 2.61412 43.5121V39.9637C1.00905 38.4198 0 36.1796 0 33.6868V26.5901C0.000488524 25.2832 0.284197 23.9944 0.828677 22.8256L3.31994 17.4694C2.68906 17.1849 2.06603 16.8789 1.45084 16.5514C0.833465 16.2143 0.364172 15.6302 0.144123 14.9249C-0.0759255 14.2197 -0.0291082 13.4498 0.274483 12.7813C0.427824 12.4513 0.640231 12.1569 0.899563 11.9151C1.15889 11.6732 1.46007 11.4886 1.78587 11.3718C2.11167 11.255 2.45571 11.2083 2.79833 11.2344C3.14094 11.2604 3.47542 11.3587 3.78264 11.5237C4.40131 11.8512 5.0287 12.1544 5.6648 12.4332L9.28798 4.6572C9.93902 3.25809 10.94 2.08132 12.1788 1.25875C13.4176 0.436177 14.8452 0.000313804 16.3017 0H35.9808ZM14.3777 25.2651C13.3377 25.2651 12.3403 25.7087 11.605 26.4984C10.8696 27.2881 10.4565 28.3591 10.4565 29.4759C10.4565 30.5927 10.8696 31.6638 11.605 32.4534C12.3403 33.2431 13.3377 33.6868 14.3777 33.6868C15.4176 33.6868 16.415 33.2431 17.1504 32.4534C17.8857 31.6638 18.2989 30.5927 18.2989 29.4759C18.2989 28.3591 17.8857 27.2881 17.1504 26.4984C16.415 25.7087 15.4176 25.2651 14.3777 25.2651ZM37.9048 25.2651C36.8648 25.2651 35.8674 25.7087 35.1321 26.4984C34.3967 27.2881 33.9836 28.3591 33.9836 29.4759C33.9836 30.5927 34.3967 31.6638 35.1321 32.4534C35.8674 33.2431 36.8648 33.6868 37.9048 33.6868C38.9447 33.6868 39.9421 33.2431 40.6775 32.4534C41.4128 31.6638 41.826 30.5927 41.826 29.4759C41.826 28.3591 41.4128 27.2881 40.6775 26.4984C39.9421 25.7087 38.9447 25.2651 37.9048 25.2651ZM35.9808 5.61446H16.3017C15.8714 5.61439 15.4478 5.72837 15.0684 5.94629C14.689 6.16421 14.3655 6.47933 14.1267 6.86368L13.9646 7.16686L10.6447 14.2916C14.6914 15.5942 20.1444 16.8434 26.1412 16.8434C31.7407 16.8434 36.8617 15.7542 40.8065 14.5499L41.6351 14.2916L38.3178 7.16686C38.1254 6.75368 37.8411 6.39787 37.4899 6.13098C37.1388 5.8641 36.7318 5.6944 36.3049 5.63692L35.9834 5.61446H35.9808Z" fill="white"/>
</svg>
